<svg xmlns="http://www.w3.org/2000/svg" viewBox="0 0 512 512">
<defs>
  <linearGradient id="g" x1="70" y1="70" x2="440" y2="440" gradientUnits="userSpaceOnUse">
    <stop stop-color="#9b82ff"/>
    <stop offset="1" stop-color="#4dc9f4"/>
  </linearGradient>
  <radialGradient id="bg" cx="30%" cy="20%" r="100%">
    <stop stop-color="#242043"/>
    <stop offset="1" stop-color="#090b12"/>
  </radialGradient>
</defs>
<rect width="512" height="512" rx="118" fill="url(#bg)"/>
<rect x="18" y="18" width="476" height="476" rx="104" fill="none" stroke="#ffffff" stroke-opacity=".08" stroke-width="4"/>
<path d="M329 104c-67 11-118 69-118 139 0 78 63 141 141 141 22 0 43-5 61-14-31 39-79 64-133 64-94 0-170-76-170-170 0-83 60-152 139-167 27-5 54-3 80 7Z" fill="url(#g)"/>
<path d="M338 300c0-41 33-74 74-74h21c17 0 31 14 31 31v43c0 41-33 74-74 74h-52v-74Z" fill="#fff" fill-opacity=".12"/>
<circle cx="382" cy="286" r="9" fill="#fff"/>
<circle cx="414" cy="286" r="9" fill="#fff"/>
<circle cx="446" cy="286" r="9" fill="#fff"/>
</svg>